<?xml version="1.0" standalone="no"?>
<!DOCTYPE svg PUBLIC "-//W3C//DTD SVG 20010904//EN"
 "http://www.w3.org/TR/2001/REC-SVG-20010904/DTD/svg10.dtd">
<svg version="1.0" xmlns="http://www.w3.org/2000/svg"
 width="1775.000000pt" height="1746.000000pt" viewBox="0 0 1775.000000 1746.000000"
 preserveAspectRatio="xMidYMid meet">

<g transform="translate(0.000000,1746.000000) scale(0.100000,-0.100000)"
fill="#000000" stroke="none">
<path d="M3530 15609 c-32 -13 -78 -56 -96 -91 l-14 -27 -67 35 c-72 38 -103
39 -151 8 -31 -20 -62 -89 -62 -139 0 -79 66 -181 196 -306 80 -76 192 -165
198 -158 17 21 80 143 113 219 51 118 73 200 73 278 0 97 -28 146 -103 177
-41 17 -52 18 -87 4z"/>
<path d="M6242 15170 c-62 -58 -108 -241 -128 -509 l-7 -94 -62 6 c-112 11
-313 108 -699 337 -218 130 -362 180 -521 180 -164 0 -333 -90 -379 -202 -21
-51 -20 -80 5 -112 27 -34 60 -31 73 6 8 23 6 31 -12 48 -12 12 -22 23 -22 26
0 21 37 68 77 97 81 60 124 72 243 71 153 -1 252 -40 484 -191 144 -94 358
-218 461 -267 108 -52 248 -96 304 -96 l41 0 2 -265 c2 -146 3 -313 3 -372 l0
-108 -170 -33 c-306 -59 -454 -45 -587 56 -104 78 -161 200 -123 259 9 14 30
30 46 36 24 9 29 17 29 43 0 17 -7 37 -15 44 -20 17 -83 -20 -115 -67 -35 -51
-36 -157 -2 -225 51 -104 167 -197 290 -233 128 -38 342 -36 544 6 55 11 101
19 103 17 10 -10 26 -682 21 -828 -16 -407 -46 -508 -141 -481 -125 34 -256
182 -362 409 -41 88 -44 97 -28 107 146 87 195 160 195 294 0 73 -24 128 -70
161 -160 114 -314 -88 -267 -352 l13 -78 -34 -6 c-52 -10 -151 2 -216 27 -71
26 -150 89 -193 153 -70 103 -113 314 -94 456 18 137 58 185 149 178 46 -3 47
-2 50 27 4 47 -10 58 -75 63 -73 5 -116 -21 -155 -94 -109 -202 -60 -517 109
-703 108 -120 177 -151 352 -160 l125 -6 16 -55 c26 -87 104 -228 176 -319
102 -127 186 -181 294 -189 119 -8 174 37 223 185 60 181 79 393 80 891 l2
372 35 9 c412 106 713 170 798 171 l22 0 0 -278 c0 -501 34 -840 112 -1132 73
-270 154 -369 300 -370 185 0 331 138 543 513 l27 49 22 -21 c77 -73 214 -65
328 18 80 59 179 165 245 263 35 54 68 100 72 102 4 3 7 -86 7 -197 -1 -232
13 -360 55 -494 59 -186 151 -272 279 -260 40 3 76 14 108 33 94 55 232 214
329 380 54 91 183 350 183 366 0 8 3 9 10 2 5 -5 12 -143 16 -311 l7 -301 -31
-49 c-45 -71 -176 -344 -226 -475 -120 -309 -197 -652 -182 -809 13 -140 73
-234 168 -259 256 -70 370 318 383 1310 9 630 12 671 69 896 75 296 222 597
329 675 46 34 103 39 143 12 77 -50 102 -244 63 -484 l-12 -67 -111 -48 c-137
-59 -210 -124 -244 -217 -27 -70 -29 -162 -6 -196 40 -57 161 -78 242 -41 96
44 219 219 276 396 l27 82 92 32 c248 86 492 218 609 329 21 19 40 32 43 29 3
-3 12 -36 20 -74 38 -185 63 -495 67 -849 l3 -200 -39 -64 c-132 -217 -282
-628 -321 -877 -43 -275 19 -428 174 -429 68 0 96 18 141 92 56 91 92 238 115
463 19 192 25 323 35 765 7 342 11 402 30 490 70 322 228 646 338 692 30 12
37 12 70 -4 54 -27 73 -60 85 -153 8 -61 8 -110 -1 -191 -15 -128 -17 -136
-45 -145 -73 -23 -193 -92 -227 -132 -62 -70 -91 -189 -61 -246 31 -56 144
-75 219 -37 82 42 164 158 227 325 l30 79 85 32 c237 88 419 188 527 288 l32
30 11 -29 c26 -70 76 -172 99 -203 46 -62 142 -88 214 -58 90 38 190 198 242
387 15 52 30 106 34 120 11 35 20 -152 23 -446 l2 -241 -68 -84 c-211 -263
-317 -482 -376 -779 -50 -255 -48 -468 6 -677 45 -173 104 -273 187 -315 l29
-14 -41 -13 c-28 -8 -41 -17 -41 -30 0 -22 46 -319 61 -389 12 -62 11 -68 -73
-272 -136 -330 -330 -678 -459 -824 -57 -65 -123 -106 -169 -106 -81 0 -160
81 -194 199 -49 166 -63 519 -32 809 8 79 12 150 9 158 -7 18 -44 34 -77 34
-18 0 -27 -11 -45 -54 -55 -134 -266 -419 -379 -511 -110 -91 -179 -97 -216
-21 -18 36 -18 47 -8 121 42 285 271 655 467 751 77 37 177 41 222 8 38 -28
63 -80 63 -131 0 -34 5 -46 25 -59 44 -29 55 -14 55 74 0 101 -26 156 -88 191
-86 46 -253 46 -365 -1 -214 -89 -403 -318 -499 -601 -25 -74 -32 -114 -36
-207 -5 -112 -6 -118 -64 -259 -160 -391 -324 -634 -485 -713 -124 -61 -199
-21 -247 132 -53 165 -97 515 -122 961 l-14 265 54 137 c92 230 193 584 237
832 26 151 37 433 20 531 -26 146 -77 206 -185 212 -80 4 -112 -16 -149 -92
-65 -132 -82 -324 -81 -905 l1 -473 -35 41 c-19 23 -57 54 -86 69 -47 25 -60
27 -172 27 -118 0 -121 -1 -195 -37 -125 -62 -249 -209 -295 -353 -23 -69
-126 -270 -181 -352 -69 -103 -164 -221 -230 -285 -138 -134 -261 -146 -293
-27 -7 23 -15 193 -20 383 -9 365 -19 452 -63 518 -115 171 -329 53 -491 -269
-45 -91 -116 -265 -117 -290 -2 -54 -18 50 -29 188 l-12 156 41 72 c54 97 106
237 141 384 49 209 55 261 55 472 0 178 -3 210 -24 290 -56 212 -135 304 -261
305 -137 0 -180 -94 -182 -390 -1 -192 2 -231 37 -585 37 -369 40 -418 25
-472 -40 -147 -168 -422 -264 -565 -127 -191 -219 -275 -311 -286 -38 -4 -50
-1 -70 18 -57 53 -80 206 -72 475 4 160 70 925 82 962 5 14 166 67 254 83 36
6 101 10 145 8 80 -3 81 -2 84 22 4 43 -9 50 -94 51 -88 1 -195 -19 -303 -56
-58 -20 -71 -21 -71 -9 0 8 6 72 14 142 28 242 28 228 0 241 -33 15 -69 14
-81 -1 -5 -7 -22 -105 -37 -218 -16 -113 -32 -212 -37 -220 -11 -22 -144 -63
-204 -63 -28 0 -65 8 -82 17 -18 9 -39 16 -47 16 -17 0 -31 -34 -20 -51 26
-42 172 -52 273 -18 34 12 64 19 67 16 3 -3 -6 -96 -20 -206 -14 -111 -26
-216 -26 -233 0 -66 -163 -432 -275 -618 -210 -348 -404 -514 -506 -431 -22
18 -24 26 -23 103 2 89 21 184 110 542 30 120 54 239 54 263 0 40 -3 45 -32
57 -18 7 -80 17 -137 20 -101 7 -200 21 -209 31 -3 2 3 45 13 95 37 191 -9
299 -115 270 -90 -24 -129 -90 -130 -218 0 -62 5 -92 19 -120 23 -45 66 -87
104 -101 35 -13 34 -16 -38 -163 -75 -151 -144 -247 -265 -369 -109 -109 -154
-139 -227 -147 -51 -5 -84 13 -110 61 -25 45 -22 262 6 522 21 184 27 220 45
266 15 36 -104 51 -132 16 -5 -6 -12 -25 -16 -42 -10 -40 -88 -114 -194 -183
-96 -63 -370 -204 -382 -197 -4 2 -10 24 -13 48 -12 85 -67 233 -119 321 -85
143 -216 270 -374 362 -17 10 -11 19 69 105 241 255 387 595 387 900 0 114
-13 179 -55 267 -63 134 -176 223 -319 252 -146 30 -349 -38 -561 -185 -147
-102 -321 -299 -398 -450 l-31 -60 -8 45 c-5 25 -15 87 -23 139 l-14 95 40 34
c120 103 174 288 135 463 -30 133 -86 199 -172 199 -55 0 -96 -33 -120 -98
-15 -40 -18 -84 -20 -297 l-2 -250 -40 -23 c-45 -25 -146 -47 -267 -57 l-80
-6 -38 74 c-63 124 -196 237 -280 237 -49 0 -85 -19 -130 -69 -26 -29 -37 -50
-37 -72 0 -110 149 -211 351 -239 46 -6 85 -13 86 -14 2 -1 6 -29 11 -62 13
-94 -3 -235 -36 -313 -32 -76 -78 -151 -92 -151 -5 0 -26 11 -46 25 -47 32
-153 65 -208 65 -61 0 -106 -27 -133 -80 -29 -57 -29 -92 -1 -142 31 -55 81
-79 166 -80 81 0 137 14 187 48 21 14 44 23 51 20 19 -7 37 -85 30 -134 -10
-73 -73 -179 -154 -259 -76 -76 -290 -240 -507 -388 -310 -213 -460 -436 -442
-656 13 -154 106 -262 188 -219 25 14 24 42 -2 66 -17 15 -23 16 -40 6 -30
-19 -55 1 -72 55 -38 118 -29 203 30 313 73 135 127 182 588 510 338 241 428
321 477 426 51 108 41 235 -24 326 l-19 27 27 43 c87 138 125 328 100 503 l-7
50 108 19 c59 10 142 29 183 42 41 13 76 21 78 19 3 -2 9 -48 14 -102 4 -54
15 -156 23 -228 29 -246 29 -235 5 -314 -85 -287 -124 -745 -85 -1006 36 -242
100 -345 215 -345 106 0 154 79 172 285 18 215 -22 637 -108 1137 l-25 146 27
64 c146 349 347 558 615 643 145 45 305 24 389 -51 61 -56 83 -124 83 -264 0
-172 -33 -341 -105 -525 -59 -153 -151 -311 -234 -403 l-39 -43 -60 16 c-115
31 -250 19 -290 -25 -24 -27 -35 -85 -23 -126 7 -27 18 -39 43 -50 68 -28 187
-13 297 38 l68 31 58 -45 c125 -97 240 -265 299 -439 42 -121 64 -273 42 -293
-8 -7 -68 -36 -134 -66 -378 -167 -475 -237 -521 -373 -21 -61 -15 -149 12
-203 23 -45 96 -98 157 -115 23 -6 78 -9 122 -7 111 6 192 45 297 146 88 84
156 185 199 296 29 75 63 192 74 258 6 37 7 38 188 127 104 52 221 118 272
155 49 36 91 63 93 61 2 -2 -1 -70 -7 -152 -26 -368 45 -532 230 -533 198 -1
492 312 624 663 13 33 22 46 32 42 8 -3 68 -5 134 -5 97 0 119 -3 119 -15 0
-7 -22 -82 -49 -164 -82 -247 -105 -362 -105 -526 -1 -132 1 -143 24 -184 38
-66 68 -85 151 -89 63 -4 77 -1 134 27 115 57 267 220 395 426 24 39 74 132
111 208 l67 139 4 -194 c6 -214 20 -301 70 -406 41 -88 86 -117 182 -117 95 0
153 32 257 143 125 135 239 315 329 526 l38 89 6 -39 c3 -21 10 -115 16 -209
23 -378 20 -356 46 -382 14 -14 35 -23 54 -23 37 0 43 13 60 125 50 334 294
785 424 785 73 -1 83 -34 91 -295 12 -408 35 -547 104 -642 69 -96 229 -97
368 -2 99 68 248 233 329 365 10 17 13 14 18 -21 14 -87 49 -192 78 -236 74
-110 215 -147 345 -89 131 58 282 231 377 433 15 33 29 57 31 55 2 -1 8 -96
14 -209 23 -427 73 -692 161 -869 52 -102 111 -140 215 -140 159 0 311 108
460 325 48 71 158 288 215 428 17 42 34 77 36 77 3 0 22 -9 44 -20 44 -22 131
-27 192 -10 102 29 262 176 373 343 39 59 72 107 75 107 3 0 5 -105 5 -232 1
-258 14 -372 61 -517 56 -173 148 -261 273 -261 80 0 148 35 238 123 168 162
313 404 479 798 26 63 51 118 54 122 4 4 15 -14 25 -40 85 -226 169 -303 299
-272 112 27 220 189 288 431 18 65 36 118 39 118 3 0 9 -164 13 -364 l7 -364
-77 -98 c-275 -352 -390 -631 -426 -1041 -27 -306 47 -645 167 -768 58 -60
105 -79 180 -73 130 11 214 144 259 411 43 253 49 371 52 1006 l3 613 279 282
c264 266 352 368 352 408 0 14 -8 18 -38 18 -36 0 -41 -4 -72 -52 -42 -67
-523 -541 -531 -525 -4 7 -9 113 -13 237 -4 124 -11 320 -17 435 -9 194 -11
211 -30 228 -21 17 -65 22 -106 11 -18 -5 -23 -15 -28 -72 -18 -179 -79 -405
-150 -559 -100 -216 -216 -266 -269 -116 -23 66 -55 231 -72 375 -35 297 -53
413 -69 424 -13 10 -10 12 15 17 43 9 112 77 144 142 38 78 61 178 85 362 35
273 44 505 38 979 l-5 442 265 263 c227 226 343 358 343 389 0 11 -42 20 -65
14 -11 -3 -33 -27 -49 -52 -25 -39 -473 -491 -495 -500 -4 -1 -15 188 -24 420
-16 407 -18 424 -38 441 -24 19 -64 22 -103 7 -23 -8 -26 -15 -26 -57 0 -118
-59 -350 -129 -512 -83 -192 -173 -265 -234 -191 -43 50 -75 193 -107 470 -28
240 -40 323 -51 337 -18 21 -102 26 -144 9 -32 -14 -36 -19 -31 -41 3 -13 17
-95 31 -182 13 -87 31 -189 40 -227 l16 -70 -28 -40 c-16 -22 -55 -62 -87 -87
-86 -70 -362 -207 -453 -225 l-28 -6 3 112 c3 91 -1 125 -17 179 -38 125 -138
203 -262 205 -136 2 -255 -140 -349 -416 -35 -102 -50 -122 -50 -64 0 40 -36
325 -51 406 -5 30 -17 88 -25 128 l-16 73 -31 -6 c-54 -12 -96 -44 -115 -89
-59 -132 -261 -257 -671 -414 -11 -4 -12 14 -6 99 12 181 -29 327 -112 400
-93 81 -230 107 -321 61 -114 -60 -211 -207 -296 -450 -20 -57 -40 -111 -46
-120 -8 -15 -9 -15 -10 3 0 11 -5 52 -10 92 -7 57 -6 81 5 114 14 38 14 41 -4
46 -14 4 -21 21 -30 86 -16 116 -67 386 -73 393 -12 11 -80 -9 -108 -33 -48
-40 -55 -81 -31 -172 24 -87 66 -330 76 -436 7 -68 5 -75 -35 -170 -60 -143
-198 -416 -259 -515 -106 -171 -206 -287 -267 -310 -80 -31 -161 13 -212 115
-63 126 -89 488 -57 785 21 199 22 198 -20 216 -19 7 -39 14 -45 14 -5 0 -23
-27 -40 -60 -112 -222 -322 -481 -433 -533 -51 -25 -95 -19 -121 16 -59 79 25
366 170 588 27 41 83 109 125 151 91 93 163 131 249 131 99 0 148 -45 154
-140 3 -50 31 -81 62 -69 14 5 16 19 12 90 -5 105 -25 142 -93 176 -44 22 -63
25 -155 24 -90 0 -115 -4 -174 -27 -256 -101 -480 -425 -516 -747 -10 -85 -17
-107 -72 -218 -118 -239 -261 -428 -353 -466 -43 -18 -102 -21 -139 -6 -32 12
-82 88 -102 155 -68 227 -109 684 -113 1258 -1 233 0 258 15 264 26 10 134
-16 181 -43 68 -39 136 -142 145 -218 3 -29 1 -30 -64 -47 -87 -21 -134 -52
-169 -108 -49 -77 -32 -139 52 -181 72 -37 142 -20 201 49 38 44 68 123 68
177 0 32 2 34 35 34 87 0 182 -58 207 -127 14 -37 36 -42 62 -14 16 17 16 22
2 49 -35 68 -128 117 -257 136 -45 7 -47 8 -52 48 -9 66 -62 162 -117 212 -64
57 -117 82 -216 103 -43 9 -82 19 -86 22 -7 7 6 286 22 466 18 200 50 397 70
441 25 51 25 78 0 119 -39 64 -88 53 -126 -28 -62 -137 -103 -408 -139 -918
l-6 -85 -92 -13 c-92 -12 -259 -47 -586 -122 -95 -22 -175 -39 -176 -37 -2 2
-10 158 -18 348 -12 308 -12 346 2 355 123 81 195 240 195 435 0 177 -53 280
-146 280 -31 0 -51 -6 -66 -20z m98 -77 c21 -71 24 -222 6 -313 -17 -94 -62
-193 -89 -198 -20 -4 -20 2 -8 283 6 134 13 191 26 223 22 55 50 57 65 5z
m1307 -1643 c-6 -74 -31 -117 -80 -143 -31 -16 -43 -17 -62 -9 -65 30 -22 136
74 185 30 15 59 27 64 27 6 0 8 -25 4 -60z m-1963 -221 c91 -72 65 -218 -54
-302 -38 -26 -57 -34 -64 -27 -7 7 -11 57 -11 123 0 127 18 187 64 212 34 18
34 18 65 -6z m4756 -386 c-1 -29 -64 -184 -93 -231 -36 -56 -83 -80 -123 -61
-34 17 -49 62 -40 114 10 49 72 107 166 156 87 44 90 45 90 22z m1614 -145
c-41 -127 -92 -198 -143 -198 -39 0 -61 24 -61 66 0 47 22 86 69 123 46 37
145 83 149 70 2 -5 -4 -33 -14 -61z m-8670 -10 c33 -52 50 -141 51 -263 0
-107 -3 -125 -24 -165 -28 -53 -50 -80 -65 -80 -16 0 -51 270 -51 390 0 107
12 140 50 140 14 0 30 -9 39 -22z m10156 -933 c-15 -445 -44 -669 -98 -775
-22 -44 -33 -56 -55 -58 -16 -2 -38 3 -51 11 -49 33 -118 208 -148 377 -20
113 -16 489 5 607 43 228 124 407 279 613 l63 85 8 -285 c4 -166 3 -406 -3
-575z m-10988 524 c59 -30 140 -110 167 -164 13 -26 21 -48 18 -51 -10 -11
-135 29 -193 61 -58 33 -114 94 -114 125 0 22 31 50 57 50 13 0 42 -9 65 -21z
m8171 -269 c15 -12 31 -38 37 -58 18 -60 24 -287 10 -418 -23 -231 -120 -707
-184 -904 l-24 -75 -2 70 c-7 297 7 816 26 1005 20 202 46 340 70 378 18 27
34 28 67 2z m753 -137 c-7 -162 -47 -539 -71 -672 -20 -112 -52 -226 -71 -257
-39 -59 -117 -5 -129 89 -19 150 62 493 188 797 61 149 80 190 85 190 3 0 2
-66 -2 -147z m-1720 45 c-3 -40 -8 -125 -11 -188 -14 -266 -76 -728 -119 -876
-27 -92 -47 -131 -72 -141 -25 -9 -82 24 -99 58 -70 135 32 627 221 1056 31
71 58 136 61 146 3 9 10 17 15 17 6 0 8 -29 4 -72z m-1522 -109 c53 -24 98
-123 121 -262 38 -226 29 -507 -22 -737 -31 -140 -94 -322 -108 -308 -2 1 -8
55 -14 118 -7 63 -23 223 -36 355 -38 372 -48 540 -42 670 6 141 16 175 51
175 14 0 36 -5 50 -11z m-5729 -378 c33 -15 69 -38 79 -49 19 -22 19 -22 -25
-42 -50 -22 -156 -27 -207 -9 -53 18 -55 86 -4 113 41 23 91 19 157 -13z m834
-388 c72 -495 100 -866 68 -908 -15 -19 -18 -19 -44 -5 -36 19 -69 88 -83 170
-13 83 -13 417 0 551 16 163 32 279 39 279 4 0 13 -39 20 -87z m709 -54 c41
-14 40 -26 -1 -44 -85 -35 -182 -24 -182 20 0 43 94 55 183 24z m2153 -160
c12 -24 7 -60 -23 -167 -22 -75 -34 -84 -55 -41 -35 67 7 226 59 229 4 0 12
-9 19 -21z m4082 -153 c65 -27 140 -144 153 -240 12 -86 -93 -341 -214 -521
-96 -142 -179 -218 -269 -245 -33 -10 -45 -10 -71 4 -41 21 -59 57 -73 148
-46 293 120 769 296 849 47 22 133 24 178 5z m-5683 -660 c0 -12 -53 -161 -74
-210 -84 -190 -251 -346 -371 -346 -49 0 -102 26 -129 63 -27 36 -27 126 -1
181 36 75 166 159 405 259 120 50 170 66 170 53z m9419 -913 c-1 -752 -29
-1087 -103 -1249 -115 -251 -310 214 -291 693 15 376 73 567 252 842 62 96
121 171 134 171 4 0 8 -206 8 -457z"/>
<path d="M11282 15049 c-53 -26 -119 -100 -132 -148 -45 -164 59 -420 303
-743 44 -60 84 -108 87 -108 12 0 156 152 227 240 176 216 253 372 253 510 0
97 -34 161 -114 214 -73 49 -179 25 -275 -62 l-44 -40 -57 59 c-93 95 -166
118 -248 78z"/>
<path d="M5444 11455 c-29 -44 -2 -155 42 -172 50 -19 93 40 75 105 -25 84
-83 118 -117 67z"/>
<path d="M9340 9235 c-104 -23 -199 -76 -288 -160 -233 -219 -312 -458 -330
-999 l-7 -198 -39 98 c-64 164 -199 432 -274 546 -129 194 -238 279 -402 314
-181 38 -361 -26 -465 -166 -52 -72 -82 -146 -97 -246 -33 -212 82 -485 272
-641 122 -101 302 -181 713 -318 136 -45 251 -85 254 -89 3 -3 -99 -6 -228 -6
-129 0 -371 -3 -539 -5 -168 -3 -519 -8 -781 -11 l-476 -6 -17 -127 c-9 -69
-19 -144 -21 -166 -3 -22 -21 -159 -40 -305 -61 -452 -64 -474 -60 -478 6 -7
2015 -2 2119 5 l98 6 -3 -579 c-2 -318 -5 -587 -8 -598 -4 -17 -14 -18 -200
-12 -413 14 -761 26 -896 31 -673 27 -841 33 -846 27 -3 -4 -3 -32 0 -62 6
-52 7 -55 36 -57 31 -2 541 -20 1410 -49 270 -9 492 -18 494 -20 3 -3 2 -176
-2 -180 -1 -1 -319 -9 -707 -18 -388 -9 -819 -19 -957 -22 l-253 -7 0 -54 c0
-37 4 -55 14 -59 15 -6 1479 21 1750 32 l159 6 -7 -1133 c-3 -624 -9 -1459
-12 -1857 l-7 -722 61 0 60 0 6 502 c8 652 16 1976 16 2666 l0 542 64 0 64 0
6 -67 c3 -38 11 -165 16 -283 6 -118 15 -294 20 -390 44 -791 62 -1126 80
-1450 11 -206 27 -496 35 -645 40 -727 45 -832 45 -852 0 -22 4 -23 65 -23
l64 0 -5 48 c-5 51 -34 581 -59 1067 -9 165 -24 449 -35 630 -11 182 -24 429
-30 550 -5 121 -15 292 -20 380 -6 88 -19 320 -30 515 -11 195 -22 392 -25
438 -4 61 -2 84 7 87 14 4 813 22 1478 34 212 3 391 10 398 14 7 5 12 30 12
64 l0 55 -157 -6 c-288 -12 -1735 -37 -1741 -31 -4 4 -8 40 -11 82 l-3 76 193
-7 c107 -4 457 -15 779 -26 322 -11 667 -23 768 -26 l182 -7 0 62 0 61 -67 1
c-38 0 -79 2 -93 4 -14 1 -144 6 -290 10 -478 13 -1469 51 -1474 56 -8 7 -66
1028 -66 1155 l0 41 1023 8 c965 8 1218 11 1242 14 7 1 7 72 -1 219 -6 119
-15 285 -18 367 -9 210 -28 509 -32 514 -2 2 -410 -1 -906 -7 -496 -7 -903
-10 -905 -8 -2 1 72 15 164 30 460 75 772 202 905 369 71 89 100 167 106 280
13 264 -139 478 -385 542 -71 19 -246 19 -330 1 l-63 -14 0 137 c0 211 -37
335 -125 425 -75 77 -215 110 -345 81z m203 -119 c112 -47 164 -192 154 -436
-4 -114 -7 -136 -22 -145 -171 -101 -342 -269 -506 -500 -91 -127 -197 -295
-254 -400 l-49 -90 -9 35 c-4 19 -10 163 -13 320 -11 530 39 786 194 991 86
112 175 182 292 225 47 17 173 17 213 0z m-1523 -406 c76 -22 149 -71 198
-132 151 -188 319 -527 447 -901 32 -92 55 -171 51 -174 -17 -17 -436 121
-676 223 -214 91 -341 199 -418 353 -107 213 -92 429 40 561 96 96 198 116
358 70z m2197 -228 c110 -42 194 -129 239 -247 14 -37 19 -76 19 -150 0 -86
-3 -106 -24 -145 -74 -138 -204 -229 -450 -310 -198 -66 -364 -98 -742 -145
-301 -36 -293 -38 -173 43 144 97 236 173 345 282 179 180 273 344 343 601 15
54 18 57 58 68 134 37 295 38 385 3z m-607 -208 c-65 -162 -177 -314 -331
-450 -86 -76 -202 -165 -207 -159 -10 9 126 216 239 365 112 149 318 358 327
332 1 -5 -11 -45 -28 -88z m-726 -2036 c5 -42 25 -397 46 -838 6 -118 13 -239
15 -267 l5 -53 -34 0 c-72 0 -66 -51 -66 599 0 323 3 591 7 594 14 15 22 5 27
-35z m74 -1365 l3 -83 -58 0 -58 0 3 85 3 86 52 -3 52 -3 3 -82z"/>
<path d="M3945 8203 c-34 -9 -66 -36 -92 -77 -37 -58 -30 -152 20 -260 32 -68
61 -116 173 -280 46 -67 51 -67 111 -1 145 161 233 301 255 408 10 48 9 57
-13 101 -32 64 -68 91 -123 91 -40 0 -63 -11 -142 -70 -10 -7 -24 0 -51 27
-31 30 -103 72 -115 67 -2 -1 -12 -4 -23 -6z"/>
<path d="M4880 6852 c-74 -25 -135 -65 -198 -131 -137 -142 -190 -309 -199
-629 -3 -101 -9 -180 -13 -175 -3 4 -19 40 -35 78 -47 118 -144 306 -198 383
-102 148 -197 205 -342 206 -102 0 -166 -26 -230 -95 -61 -65 -86 -124 -92
-218 -7 -95 9 -172 52 -259 90 -178 214 -257 620 -393 l200 -67 -105 -5 c-58
-4 -377 -9 -710 -12 -332 -4 -606 -7 -607 -8 -2 -3 -60 -410 -78 -557 -9 -69
-18 -142 -22 -163 l-6 -38 782 3 781 3 0 -416 c0 -325 -3 -418 -12 -421 -14
-4 -155 0 -823 26 -220 9 -433 16 -472 16 l-73 0 0 -29 c0 -58 5 -61 99 -61
114 1 1252 -40 1269 -45 8 -3 12 -25 12 -63 l0 -60 -102 -6 c-57 -3 -263 -8
-458 -11 -195 -3 -455 -8 -577 -11 l-223 -6 0 -39 c0 -21 4 -40 10 -44 8 -5
338 1 1107 20 l242 6 -4 -273 c-3 -150 -7 -740 -10 -1310 l-5 -1038 44 0 43 0
6 962 c4 529 7 1118 7 1310 l0 348 44 0 45 0 5 -42 c3 -24 10 -144 16 -268 11
-224 23 -456 60 -1110 10 -190 24 -448 31 -575 6 -126 17 -318 23 -425 l11
-195 44 -3 44 -3 -6 113 c-3 62 -15 284 -27 493 -11 209 -34 616 -50 905 -16
289 -34 620 -40 735 -5 116 -13 249 -16 298 l-7 87 69 0 c155 -1 1231 22 1252
26 18 4 22 11 22 46 l0 41 -322 -7 c-178 -4 -478 -11 -668 -16 -269 -7 -346
-7 -352 3 -4 6 -8 33 -8 59 l0 47 103 -5 c56 -2 251 -9 432 -14 182 -6 438
-15 569 -20 132 -6 241 -8 243 -7 2 2 4 21 6 43 l2 39 -120 6 c-108 6 -385 16
-1022 38 -117 4 -214 9 -217 12 -2 2 -11 146 -20 319 -9 173 -19 363 -22 423
l-6 107 438 0 c242 0 603 3 804 7 l365 6 -7 146 c-21 444 -31 617 -35 624 -4
7 -472 3 -1022 -8 -135 -3 -242 -3 -239 0 2 3 67 16 143 30 428 76 639 210
670 425 8 56 -9 158 -38 219 -31 67 -114 145 -184 172 -62 24 -194 31 -283 16
l-45 -7 -1 112 c-1 170 -45 273 -135 319 -58 29 -159 34 -229 11z m190 -81
c64 -34 101 -134 99 -271 -2 -114 -6 -123 -76 -169 -126 -85 -314 -314 -449
-548 -32 -57 -62 -103 -65 -103 -11 0 -19 122 -19 304 1 379 56 568 209 712
91 86 221 118 301 75z m-1093 -276 c112 -33 187 -124 309 -370 72 -147 166
-382 184 -458 7 -32 6 -37 -6 -33 -8 3 -40 13 -72 22 -114 32 -339 114 -422
152 -145 68 -215 130 -269 239 -42 85 -55 143 -48 225 15 176 156 273 324 223z
m1590 -181 c174 -89 204 -341 56 -463 -97 -80 -304 -156 -518 -190 -176 -28
-358 -51 -402 -51 -35 0 -33 2 68 74 169 119 309 267 371 390 34 68 78 190 78
217 0 37 80 59 202 56 73 -3 95 -8 145 -33z m-481 -171 c-46 -96 -86 -150
-178 -240 -80 -79 -176 -158 -183 -151 -7 7 79 142 157 246 92 123 232 263
236 238 2 -9 -13 -51 -32 -93z m-492 -1455 c5 -67 29 -511 38 -708 2 -44 2
-45 -30 -48 l-32 -3 0 420 c0 246 4 421 9 421 5 0 12 -37 15 -82z m46 -870 c0
-13 3 -40 6 -60 l7 -38 -47 0 -46 0 0 44 c0 65 7 76 46 76 29 0 34 -4 34 -22z"/>
<path d="M13588 5917 c-125 -44 -237 -141 -318 -277 -83 -138 -119 -306 -128
-597 l-7 -203 -64 150 c-103 242 -211 423 -309 517 -145 140 -386 150 -526 22
-191 -174 -171 -498 45 -719 96 -98 239 -170 546 -275 84 -29 150 -55 146 -59
-3 -3 -349 -6 -769 -6 l-762 0 -26 -137 c-14 -76 -32 -181 -40 -233 -9 -52
-29 -169 -46 -260 -16 -91 -30 -177 -30 -192 l0 -28 143 -1 c78 -1 492 -1 920
1 l777 2 0 -507 0 -508 -202 7 c-112 4 -367 13 -568 21 -201 8 -461 18 -577
21 l-213 7 0 -45 0 -45 58 -7 c31 -3 172 -11 312 -16 432 -17 807 -31 1000
-38 l185 -7 0 -70 0 -70 -715 -17 c-393 -9 -739 -20 -767 -23 l-53 -6 0 -45 0
-45 253 5 c138 2 483 10 765 17 282 6 514 10 516 8 2 -2 11 -197 20 -434 9
-236 19 -485 22 -552 l6 -123 50 0 51 0 -7 178 c-4 97 -14 345 -22 550 -9 206
-13 376 -11 378 3 3 23 7 46 9 50 5 45 32 66 -365 9 -168 20 -377 25 -465 5
-88 9 -188 10 -222 l0 -63 55 0 56 0 -6 87 c-18 270 -55 925 -55 975 l0 58
173 0 c94 0 251 3 347 5 96 3 357 10 579 15 223 6 406 11 407 13 0 1 4 21 7
44 4 36 2 42 -16 47 -11 3 -329 -1 -706 -9 -377 -8 -712 -15 -744 -15 l-58 0
3 61 3 62 115 -2 c63 -1 239 -6 390 -11 854 -30 961 -34 998 -31 19 1 22 6 22
45 l0 45 -42 5 c-24 3 -122 8 -218 11 -96 3 -296 10 -445 15 -148 6 -395 14
-549 20 -153 5 -280 11 -282 13 -2 2 -11 122 -19 268 -9 145 -22 372 -30 504
-8 131 -12 241 -10 243 4 5 180 7 1399 17 346 3 631 7 633 9 3 2 0 21 -6 43
-10 34 -174 704 -186 761 l-5 22 -645 0 c-597 0 -727 5 -597 25 78 12 278 73
356 109 98 45 187 106 230 159 82 100 112 227 82 344 -44 173 -153 286 -315
323 -52 12 -212 9 -273 -6 l-28 -6 0 108 c0 207 -52 329 -164 386 -63 33 -173
35 -258 5z m230 -91 c21 -11 41 -36 64 -83 31 -63 33 -76 37 -186 5 -167 2
-175 -67 -217 -140 -86 -346 -332 -518 -620 -65 -109 -80 -127 -88 -113 -6 11
-10 129 -11 298 0 381 23 525 110 681 68 121 182 222 284 251 56 16 147 11
189 -11z m-1190 -337 c57 -29 75 -46 133 -122 118 -156 284 -512 363 -776 l16
-53 -38 7 c-108 20 -473 154 -601 220 -264 137 -384 460 -242 656 54 77 127
110 229 105 59 -2 86 -9 140 -37z m1695 -159 c87 -27 154 -87 192 -172 24 -52
29 -77 29 -143 1 -68 -3 -88 -26 -131 -64 -122 -224 -212 -503 -284 -90 -23
-446 -76 -575 -86 l-85 -6 33 23 c194 138 336 264 418 370 60 78 116 187 149
289 16 47 32 95 36 107 17 48 218 68 332 33z m-481 -189 c-40 -94 -107 -192
-189 -275 -67 -69 -220 -196 -235 -196 -13 0 89 157 181 280 99 132 264 302
269 277 2 -9 -10 -47 -26 -86z m-552 -2026 c11 -203 21 -401 23 -440 l2 -70
-35 0 -35 0 -2 475 c-2 482 3 613 18 475 5 -38 17 -236 29 -440z m30 -642 c1
-16 3 -45 6 -65 l6 -38 -46 0 -46 0 0 65 0 65 40 0 c37 0 40 -2 40 -27z"/>
<path d="M8004 5901 c-38 -23 -73 -78 -81 -125 -8 -51 28 -158 86 -254 58 -97
189 -262 207 -262 35 0 221 262 265 373 44 112 38 181 -23 244 -57 59 -134 56
-203 -8 l-42 -39 -29 31 c-54 59 -124 74 -180 40z"/>
</g>
</svg>
